<?xml version="1.0" standalone="no"?>
<!DOCTYPE svg PUBLIC "-//W3C//DTD SVG 20010904//EN"
 "http://www.w3.org/TR/2001/REC-SVG-20010904/DTD/svg10.dtd">
<svg version="1.0" xmlns="http://www.w3.org/2000/svg"
 width="960.000000pt" height="960.000000pt" viewBox="0 0 960.000000 960.000000"
 preserveAspectRatio="xMidYMid meet">
<metadata>
Created by potrace 1.14, written by Peter Selinger 2001-2017
</metadata>
<g transform="translate(0.000000,960.000000) scale(0.100000,-0.100000)"
fill="#000000" stroke="none">
<path d="M3809 9596 c-2 -2 -24 -6 -49 -9 -25 -4 -60 -11 -78 -16 -18 -5 -34
-10 -37 -11 -3 0 -10 -2 -17 -5 -7 -2 -31 -9 -53 -16 -56 -17 -169 -74 -240
-122 -100 -68 -191 -158 -264 -260 -45 -64 -131 -231 -131 -254 0 -18 -21 -16
-75 7 -28 12 -43 15 -39 7 6 -9 4 -9 -7 -1 -8 6 -27 15 -44 19 -16 4 -39 9
-50 12 -38 9 -279 10 -319 1 -23 -6 -50 -11 -61 -13 -70 -12 -160 -47 -248
-95 -187 -102 -348 -285 -428 -485 -33 -82 -68 -233 -64 -272 1 -13 -1 -23 -5
-23 -4 0 -4 -15 0 -34 4 -19 4 -40 0 -47 -5 -7 -6 -18 -3 -25 2 -7 -6 -15 -19
-19 -95 -30 -260 -138 -345 -226 -110 -114 -218 -303 -239 -419 -3 -14 -8 -34
-11 -45 -13 -40 -14 -52 -17 -185 -2 -74 1 -153 6 -175 6 -22 12 -51 14 -65 8
-45 36 -122 65 -181 16 -32 29 -62 29 -66 0 -4 -14 -18 -31 -29 -92 -65 -212
-195 -276 -299 -41 -67 -96 -209 -108 -275 -3 -18 -8 -37 -11 -41 -3 -5 -7
-41 -10 -81 -2 -40 -5 -77 -5 -83 -5 -66 31 -267 62 -340 7 -16 13 -32 14 -35
1 -3 5 -12 9 -21 5 -12 -15 -39 -76 -101 -84 -84 -188 -228 -209 -287 -6 -17
-15 -31 -20 -31 -5 0 -8 -3 -7 -7 2 -12 -14 -66 -22 -78 -10 -12 -37 -106 -45
-155 -4 -19 -10 -57 -15 -85 -8 -48 -6 -264 3 -315 2 -14 8 -43 12 -65 7 -42
39 -145 54 -180 60 -138 138 -258 226 -351 36 -38 65 -69 65 -71 0 -1 -35 -38
-78 -81 -90 -92 -95 -97 -148 -182 -42 -66 -108 -221 -117 -275 -22 -119 -26
-160 -25 -238 1 -140 29 -264 89 -392 29 -63 91 -163 128 -205 40 -47 135
-140 142 -140 4 0 14 -6 22 -14 27 -28 130 -88 199 -118 82 -34 76 -33 188
-57 61 -13 84 -23 81 -32 -2 -8 -10 -36 -18 -64 -8 -27 -17 -68 -19 -90 -3
-22 -8 -51 -13 -65 -4 -14 -4 -37 0 -52 4 -16 3 -30 -2 -34 -5 -3 -6 -10 -3
-16 4 -5 8 -33 9 -62 1 -28 5 -70 9 -93 4 -24 7 -44 7 -45 -2 -5 47 -143 68
-191 23 -52 95 -167 130 -207 106 -119 181 -179 301 -242 78 -40 212 -86 273
-93 9 -2 18 -3 20 -5 1 -1 36 -4 77 -6 41 -3 80 -5 85 -5 6 -1 40 2 78 6 132
12 294 66 402 133 l49 30 36 -81 c44 -97 72 -151 83 -155 4 -2 7 -10 7 -17 0
-7 4 -15 8 -17 5 -2 23 -25 42 -53 46 -67 180 -200 260 -257 128 -91 344 -187
453 -202 18 -3 53 -9 80 -14 59 -12 382 -5 382 8 0 1 9 3 20 5 80 11 209 57
317 112 113 57 249 160 322 241 12 13 34 38 49 55 46 51 132 186 167 262 38
80 72 175 63 175 -3 0 -1 6 5 13 6 6 10 15 10 20 0 4 3 20 6 35 14 60 16 80
22 152 3 41 8 77 9 79 2 1 0 14 -5 27 -6 14 -6 26 0 29 5 3 6 15 0 29 -4 12
-4 29 0 36 5 8 5 21 0 30 -5 9 -5 22 0 30 5 8 6 18 3 23 -7 12 -8 95 -1 103 3
3 2 21 -2 40 -4 18 -5 34 -1 34 7 0 6 109 -2 117 -3 3 -2 16 3 29 6 14 6 26
-1 29 -5 4 -7 11 -3 16 6 10 7 105 2 172 -2 21 0 41 3 43 4 2 3 20 -1 39 -4
19 -5 35 -1 35 7 0 5 114 -3 135 -3 8 -1 17 4 20 5 3 6 15 0 29 -4 12 -4 29 0
36 5 8 5 21 0 30 -5 9 -5 22 0 30 5 8 6 18 3 23 -7 12 -8 95 -1 103 3 3 2 21
-2 40 -4 18 -5 34 -1 34 7 0 6 109 -2 117 -3 3 -2 16 3 29 6 14 6 26 -1 29 -5
4 -7 11 -3 16 6 10 7 105 2 172 -2 21 0 41 3 43 4 2 3 20 -1 39 -4 19 -5 35
-1 35 7 0 5 114 -3 135 -3 8 -1 17 4 20 5 3 6 15 0 29 -4 12 -4 29 0 36 5 8 5
21 0 30 -5 9 -5 22 0 30 5 8 6 18 3 23 -7 12 -8 95 -1 103 3 3 2 21 -2 40 -4
18 -5 34 -1 34 7 0 6 109 -2 117 -3 3 -2 16 3 29 6 14 6 26 -1 29 -5 4 -7 11
-3 16 6 10 7 105 2 172 -2 21 0 41 3 43 4 2 3 20 -1 39 -4 19 -5 35 -1 35 7 0
5 114 -3 135 -3 8 -1 17 4 20 5 3 6 15 0 29 -4 12 -4 29 0 36 5 8 5 21 0 30
-5 9 -5 22 0 30 5 8 6 18 3 23 -7 12 -8 95 -1 103 3 3 2 21 -2 40 -4 18 -5 34
-1 34 7 0 4 130 -3 138 -3 2 -1 15 4 28 6 14 6 26 0 29 -6 3 -6 15 0 30 6 15
6 27 0 30 -6 3 -6 15 0 30 5 13 6 27 1 29 -4 3 -5 25 -2 48 4 24 4 57 1 73 -4
17 -3 40 1 52 5 12 4 25 -1 28 -6 3 -6 15 0 30 6 15 6 27 0 30 -6 3 -6 15 0
30 5 13 6 27 1 29 -4 3 -5 25 -2 48 4 24 4 57 1 73 -4 17 -3 40 1 52 5 12 4
25 -1 28 -6 3 -6 15 0 30 6 15 6 27 0 30 -6 3 -6 15 0 30 5 13 6 27 1 29 -4 3
-5 25 -2 48 4 24 4 57 1 73 -4 17 -3 40 1 52 5 12 4 25 -1 28 -6 3 -6 15 0 30
6 15 6 27 0 30 -6 3 -6 15 0 30 5 13 6 27 1 29 -4 3 -5 25 -2 48 4 24 4 57 1
73 -4 17 -3 40 1 52 5 12 4 25 -1 28 -6 3 -6 15 0 30 6 15 6 27 0 30 -6 3 -6
15 0 30 5 13 6 27 1 29 -4 3 -5 25 -2 48 4 24 4 57 1 73 -4 17 -3 40 1 52 5
12 4 25 -1 28 -6 3 -6 15 0 30 6 15 6 27 0 30 -6 3 -6 15 0 30 5 13 6 27 1 29
-4 3 -5 25 -2 48 4 24 4 57 1 73 -4 17 -3 40 1 52 5 12 4 25 -1 28 -6 3 -6 15
0 30 6 15 6 27 0 30 -6 3 -6 15 0 30 5 13 6 27 1 29 -4 3 -5 25 -2 48 4 24 4
57 1 73 -4 17 -3 40 1 52 5 12 4 25 -1 28 -6 3 -6 15 0 30 6 15 6 27 0 30 -6
3 -6 15 0 30 5 13 6 27 1 29 -4 3 -5 25 -2 48 4 24 4 57 1 73 -4 17 -3 40 1
52 5 12 4 25 -1 28 -6 3 -6 15 0 30 6 15 6 27 0 30 -6 3 -6 15 0 30 5 13 6 27
1 29 -4 3 -5 25 -2 48 4 24 4 57 1 73 -4 17 -3 40 1 52 5 12 4 25 -1 28 -6 3
-6 15 0 30 6 15 6 27 0 30 -6 3 -6 15 0 30 5 13 6 27 1 29 -4 3 -5 25 -2 48 4
24 4 57 1 73 -4 17 -3 40 1 52 5 12 4 25 -1 28 -6 3 -6 15 0 30 6 15 6 27 0
30 -6 3 -6 15 0 30 5 13 6 27 1 29 -4 3 -5 25 -2 48 4 24 4 57 1 73 -4 17 -3
40 1 52 5 12 4 25 -1 28 -6 3 -6 15 0 30 6 15 6 27 0 30 -6 3 -6 15 0 30 5 13
6 27 1 29 -4 3 -5 25 -2 48 4 24 4 57 1 73 -4 17 -3 40 1 52 5 12 4 25 -1 28
-6 3 -6 15 0 30 5 14 5 27 0 30 -5 3 -5 18 0 35 5 17 5 30 0 30 -10 0 9 74 39
154 52 140 125 254 222 348 139 134 279 187 480 182 106 -2 124 -5 169 -22 14
-5 27 -10 30 -10 39 -5 161 -69 225 -119 101 -80 194 -211 239 -341 8 -23 15
-44 16 -47 0 -3 0 -6 1 -7 1 -4 7 -45 13 -89 11 -83 51 -137 116 -158 56 -18
98 -6 188 55 36 24 69 45 74 45 18 3 24 5 43 15 63 34 255 51 350 32 74 -15
191 -65 245 -105 73 -54 160 -157 199 -237 23 -46 44 -94 46 -107 3 -13 8 -35
11 -49 9 -33 9 -199 0 -278 -6 -66 2 -94 41 -139 17 -20 39 -28 178 -70 80
-23 185 -91 258 -166 37 -38 67 -76 67 -83 0 -8 4 -14 9 -14 15 0 78 -161 90
-229 14 -83 7 -223 -14 -286 -27 -79 -71 -161 -119 -223 -65 -84 -77 -141 -44
-202 21 -39 67 -82 80 -74 4 3 8 0 8 -5 0 -6 7 -11 15 -11 32 0 144 -72 210
-135 194 -187 246 -474 131 -730 -15 -32 -31 -62 -36 -65 -18 -11 -48 -92 -45
-123 4 -60 33 -102 103 -150 100 -68 232 -203 232 -236 0 -6 4 -11 8 -11 12 0
51 -85 85 -185 26 -80 30 -104 31 -215 1 -141 -10 -217 -43 -295 -33 -77 -45
-102 -54 -114 -6 -7 -12 -20 -13 -29 -2 -8 -6 -18 -11 -21 -4 -3 -26 -28 -48
-56 -58 -74 -111 -121 -195 -175 -113 -73 -116 -76 -135 -116 -40 -84 1 -175
100 -220 79 -36 159 -89 210 -139 47 -46 115 -137 115 -154 0 -6 5 -11 12 -11
6 0 8 -3 5 -7 -4 -3 -3 -11 2 -17 17 -22 52 -152 56 -208 2 -31 6 -62 10 -67
3 -6 3 -11 -2 -11 -4 0 -8 -17 -9 -38 -2 -95 -62 -260 -114 -312 -11 -11 -17
-20 -13 -20 11 0 -102 -109 -143 -136 -47 -33 -152 -81 -188 -88 -14 -3 -30
-8 -36 -11 -21 -13 -189 -14 -261 -2 -97 17 -153 -1 -196 -63 -18 -25 -33
-109 -22 -116 5 -3 7 -9 4 -14 -3 -4 20 -44 50 -88 30 -45 55 -84 55 -87 0 -3
9 -24 19 -48 37 -83 46 -128 45 -237 0 -95 -6 -150 -16 -156 -4 -3 -8 -15 -8
-27 0 -27 -59 -151 -91 -191 -37 -46 -129 -141 -129 -133 0 4 -9 -2 -20 -13
-55 -55 -214 -110 -333 -115 -76 -4 -113 0 -212 19 -36 7 -135 55 -183 88 -45
32 -65 51 -159 151 -108 115 -269 57 -289 -103 -12 -100 -19 -133 -51 -220
-29 -81 -78 -171 -127 -235 -86 -112 -253 -240 -366 -280 -3 -1 -12 -4 -20 -8
-85 -33 -164 -49 -247 -51 -29 -1 -53 -5 -53 -9 0 -5 -5 -5 -11 -1 -6 3 -39 8
-73 10 -69 3 -97 8 -176 30 -57 16 -216 90 -237 110 -6 6 -34 26 -63 44 -146
94 -306 -31 -242 -191 11 -28 88 -99 131 -121 15 -7 28 -16 31 -20 8 -11 161
-84 215 -103 28 -9 57 -20 65 -23 25 -9 85 -24 115 -28 11 -1 41 -7 67 -12 60
-12 256 -12 329 -1 70 11 104 17 104 19 0 1 11 4 25 7 31 6 41 8 60 16 8 3 42
15 75 27 211 75 433 253 571 456 48 70 124 222 124 246 0 20 20 34 29 21 22
-33 208 -113 328 -141 101 -24 351 -23 413 2 8 3 26 7 40 10 121 22 323 140
433 253 150 154 256 378 270 568 2 17 6 35 10 42 4 6 3 14 -2 17 -6 4 -6 18
-1 35 4 16 6 32 3 35 -3 3 -7 33 -9 66 -3 61 -28 180 -45 212 -11 21 -6 24 56
32 72 10 222 62 278 96 27 17 51 30 54 30 14 0 114 80 176 139 70 69 160 193
195 271 35 79 51 120 47 120 -3 0 0 12 6 28 6 15 13 36 14 47 2 11 8 39 13 63
10 41 9 277 -1 317 -38 153 -63 221 -117 310 -67 111 -85 134 -165 211 l-80
76 78 81 c42 44 77 86 77 93 0 7 4 14 9 16 29 11 147 247 166 332 2 12 9 39
15 61 19 73 24 129 24 255 0 150 -6 198 -41 320 -47 164 -148 335 -280 467
-45 47 -83 87 -83 89 0 2 9 23 20 47 38 82 71 246 71 357 1 85 -36 289 -59
325 -4 5 -7 15 -8 22 -4 21 -64 135 -106 197 -47 69 -167 192 -227 232 -23 15
-41 31 -41 36 0 5 9 26 20 48 36 70 81 206 84 255 1 11 4 25 8 30 9 16 1 287
-10 323 -6 17 -9 32 -7 32 8 0 -44 140 -79 210 -20 41 -56 102 -81 135 -46 62
-164 185 -176 185 -4 0 -14 6 -22 14 -34 35 -176 114 -234 131 -21 6 -29 24
-23 50 1 6 2 15 2 20 -1 6 -3 40 -6 78 -3 37 -7 75 -10 85 -3 9 -8 31 -10 47
-3 17 -14 55 -25 86 -100 292 -329 520 -611 608 -41 13 -84 27 -95 31 -11 4
-30 6 -42 5 -13 -1 -23 1 -23 5 0 9 -292 6 -306 -3 -7 -4 -29 -9 -50 -13 -21
-3 -60 -14 -86 -25 -57 -22 -78 -24 -78 -6 0 37 -125 259 -179 317 -9 10 -27
31 -42 46 -76 86 -193 172 -307 228 -67 33 -190 76 -224 79 -10 1 -18 4 -18 7
0 9 -78 13 -225 13 -139 1 -239 -16 -330 -54 -16 -7 -32 -13 -35 -14 -54 -15
-192 -101 -259 -161 -96 -86 -219 -239 -253 -314 -7 -16 -16 -30 -20 -30 -5 0
-7 -3 -6 -7 0 -5 -10 -33 -25 -64 -57 -124 -102 -279 -98 -336 1 -13 1 -32 1
-55 0 -7 0 -34 1 -60 1 -27 0 -50 -3 -54 -3 -3 -2 -21 2 -40 4 -18 4 -34 0
-34 -4 0 -4 -18 0 -40 4 -22 4 -43 0 -45 -4 -3 -4 -21 0 -40 4 -19 5 -35 1
-35 -7 0 -5 -114 3 -135 3 -8 1 -17 -4 -20 -5 -3 -6 -15 0 -29 4 -12 4 -29 0
-36 -5 -8 -5 -21 0 -30 5 -9 5 -22 0 -30 -5 -8 -6 -18 -3 -23 7 -12 8 -95 1
-103 -3 -3 -2 -21 2 -40 4 -18 4 -34 0 -34 -4 0 -4 -18 0 -40 4 -22 4 -43 0
-45 -4 -3 -4 -21 0 -40 4 -19 5 -35 1 -35 -7 0 -5 -114 3 -135 3 -8 1 -17 -4
-20 -5 -3 -6 -15 0 -29 4 -12 4 -29 0 -36 -5 -8 -5 -21 0 -30 5 -9 5 -22 0
-30 -5 -8 -6 -18 -3 -23 7 -12 8 -95 1 -103 -3 -3 -2 -21 2 -40 4 -18 4 -34 0
-34 -4 0 -4 -18 0 -40 4 -22 4 -43 0 -45 -4 -3 -4 -21 0 -40 4 -19 5 -35 1
-35 -7 0 -5 -114 3 -135 3 -8 1 -17 -4 -20 -5 -3 -6 -15 0 -29 4 -12 4 -29 0
-36 -5 -8 -5 -21 0 -30 5 -9 5 -22 0 -30 -5 -8 -6 -18 -3 -23 7 -12 8 -95 1
-103 -3 -3 -2 -21 2 -40 4 -18 4 -34 0 -34 -4 0 -4 -18 0 -40 4 -22 4 -43 0
-45 -4 -3 -4 -21 0 -40 4 -19 5 -35 1 -35 -7 0 -5 -114 3 -135 3 -8 1 -17 -4
-20 -5 -3 -6 -15 0 -29 4 -12 4 -29 0 -36 -5 -8 -5 -21 0 -30 5 -9 5 -22 0
-30 -5 -8 -6 -18 -3 -23 7 -12 8 -95 1 -103 -3 -3 -2 -21 2 -40 4 -18 4 -34 0
-34 -4 0 -4 -18 0 -40 4 -22 4 -43 0 -45 -4 -3 -4 -21 0 -40 4 -19 5 -35 1
-35 -7 0 -5 -114 3 -135 3 -8 1 -17 -4 -20 -5 -3 -6 -15 0 -29 4 -12 4 -29 0
-36 -5 -8 -5 -21 0 -30 5 -9 5 -22 0 -30 -5 -8 -6 -18 -3 -23 7 -12 8 -95 1
-103 -3 -3 -2 -21 2 -40 4 -18 4 -34 0 -34 -4 0 -4 -18 0 -40 4 -22 4 -43 0
-45 -4 -3 -4 -21 0 -40 4 -19 5 -35 1 -35 -7 0 -5 -114 3 -135 3 -8 1 -17 -4
-20 -5 -3 -6 -15 0 -29 4 -12 4 -29 0 -36 -5 -8 -5 -21 0 -30 5 -9 5 -22 0
-30 -5 -8 -6 -18 -3 -23 7 -12 8 -95 1 -103 -3 -3 -2 -21 2 -40 4 -18 5 -34 1
-34 -7 0 -4 -130 3 -138 3 -2 1 -15 -4 -28 -6 -14 -6 -26 0 -29 6 -3 6 -15 0
-30 -6 -15 -6 -27 0 -30 6 -3 6 -15 0 -30 -5 -13 -6 -27 -1 -29 4 -3 5 -25 2
-48 -4 -24 -4 -56 -1 -73 4 -16 3 -40 -1 -52 -5 -12 -4 -25 1 -28 6 -3 6 -15
0 -30 -6 -15 -6 -27 0 -30 6 -3 6 -15 0 -30 -5 -13 -6 -26 -2 -29 5 -3 5 -30
2 -61 -3 -31 -3 -58 2 -61 4 -3 3 -16 -2 -29 -6 -15 -6 -27 1 -30 5 -4 7 -11
3 -16 -6 -10 -7 -105 -2 -172 2 -21 0 -41 -3 -43 -4 -2 -3 -20 1 -39 4 -19 5
-35 1 -35 -7 0 -5 -114 3 -135 3 -8 1 -17 -4 -20 -5 -3 -6 -15 0 -29 4 -12 4
-29 0 -36 -5 -8 -5 -21 0 -30 5 -9 5 -22 0 -30 -5 -8 -6 -18 -3 -23 7 -12 8
-95 1 -103 -3 -3 -2 -21 2 -40 4 -18 5 -34 1 -34 -7 0 -6 -109 2 -117 3 -3 2
-16 -3 -29 -6 -14 -6 -26 1 -29 5 -4 7 -11 3 -16 -5 -8 -5 -42 -3 -151 0 -10
-1 -39 -1 -64 -1 -25 1 -48 4 -51 2 -3 1 -16 -4 -29 -6 -14 -6 -26 0 -29 6 -3
6 -15 0 -30 -6 -15 -6 -27 0 -30 6 -3 6 -15 0 -30 -5 -13 -6 -27 -1 -29 4 -3
5 -25 2 -48 -4 -24 -4 -56 -1 -73 4 -16 3 -40 -1 -52 -5 -12 -4 -25 1 -28 6
-3 6 -15 0 -30 -6 -15 -6 -27 0 -30 6 -3 6 -15 0 -30 -5 -13 -6 -26 -2 -29 5
-3 5 -30 2 -61 -3 -31 -3 -58 2 -61 4 -3 3 -16 -2 -29 -6 -15 -6 -27 1 -30 5
-4 7 -11 3 -16 -6 -10 -7 -105 -2 -172 2 -21 0 -41 -3 -43 -4 -2 -3 -20 1 -39
4 -19 5 -35 1 -35 -7 0 -5 -114 3 -135 3 -8 1 -17 -4 -20 -5 -3 -6 -15 0 -29
4 -12 4 -29 0 -36 -5 -8 -5 -21 0 -30 5 -9 5 -22 0 -30 -5 -8 -5 -21 0 -31 5
-9 8 -18 5 -20 -2 -2 -7 -31 -10 -63 -7 -58 -11 -86 -15 -96 -1 -3 -3 -9 -5
-15 -1 -5 -3 -12 -4 -15 -1 -3 -4 -16 -7 -29 -9 -51 -96 -213 -152 -282 -92
-115 -174 -181 -309 -248 -127 -64 -242 -88 -393 -85 -69 1 -138 5 -155 8 -94
20 -208 66 -295 117 -93 55 -269 229 -270 266 0 6 -4 13 -9 15 -8 3 -93 164
-90 170 1 2 -6 28 -15 58 -9 30 -18 72 -21 92 -3 21 -7 53 -10 72 -14 103 -83
161 -180 151 -42 -4 -105 -36 -114 -58 -5 -13 -101 -108 -136 -135 -56 -44
-171 -94 -250 -110 -43 -9 -192 -8 -248 1 -77 12 -247 87 -247 109 0 4 -6 8
-12 8 -16 0 -148 139 -148 157 0 7 -4 13 -9 13 -15 0 -73 140 -89 215 -8 39
-8 201 0 240 13 64 29 114 38 120 6 4 8 10 5 15 -3 5 22 49 56 100 33 50 63
105 65 123 3 18 7 37 9 44 2 7 0 15 -5 18 -6 4 -10 14 -10 25 0 25 -62 84
-102 96 -23 7 -52 7 -98 -2 -150 -28 -307 -4 -443 69 -61 32 -197 153 -197
175 0 6 -4 12 -9 12 -11 0 -65 103 -86 165 -22 65 -25 79 -30 147 -2 32 -6 62
-10 68 -3 5 -2 10 2 10 5 0 8 14 7 31 -3 37 29 156 58 219 37 81 166 238 182
222 3 -3 6 0 6 6 0 10 109 82 133 86 63 12 123 75 134 140 10 63 -20 121 -86
164 -31 20 -57 40 -59 45 -2 4 -9 7 -16 7 -34 0 -226 195 -226 229 0 6 -4 11
-8 11 -12 0 -50 83 -84 185 -29 83 -31 101 -31 225 -1 112 5 185 13 185 1 0 3
9 5 20 5 35 42 132 70 181 66 119 140 200 252 280 92 65 119 103 118 164 -1
33 -30 109 -46 120 -4 3 -20 34 -36 70 -27 57 -34 79 -50 140 -2 8 -6 59 -8
112 -2 71 1 116 15 168 17 67 62 171 85 196 5 6 17 22 25 35 40 62 211 199
248 199 23 0 103 52 120 78 30 46 34 109 10 158 -10 21 -22 40 -27 43 -22 15
-100 143 -116 191 -1 3 -4 12 -8 20 -33 80 -43 241 -23 340 23 109 73 205 161
308 51 60 212 162 255 162 9 0 20 3 24 7 3 4 12 8 19 9 7 2 24 6 39 9 47 9 72
22 99 49 46 46 53 77 41 169 -13 92 -8 233 8 277 1 3 3 10 4 15 2 11 11 34 34
88 63 150 213 286 377 342 78 26 84 27 190 30 142 3 257 -30 370 -107 80 -55
117 -64 175 -46 66 20 106 74 116 152 2 24 7 55 10 67 3 13 7 34 10 47 12 60
64 166 112 232 30 41 147 160 158 160 4 0 15 6 23 14 47 42 179 95 281 115 67
13 228 8 290 -9 90 -24 201 -81 248 -127 52 -51 84 -66 140 -67 44 -1 65 4 88
21 62 44 84 108 64 184 -10 34 -61 89 -147 156 -51 40 -247 133 -292 139 -14
2 -44 8 -66 14 -39 10 -307 24 -316 16z"/>
<path d="M6077 8139 c-182 -43 -389 -188 -489 -342 -15 -23 -31 -46 -36 -52
-12 -16 -74 -148 -78 -168 -2 -10 -6 -27 -9 -37 -10 -32 -15 -63 -21 -130 -7
-85 10 -134 59 -174 33 -27 47 -31 97 -31 44 0 66 5 86 21 56 41 69 71 78 174
4 58 39 146 79 204 37 53 135 143 189 174 58 33 142 59 201 61 20 1 48 6 60
10 33 13 87 60 87 77 0 8 4 14 9 14 5 0 8 27 6 61 -3 65 -19 96 -68 133 -37
27 -147 29 -250 5z"/>
<path d="M3604 7982 c-43 -23 -76 -77 -79 -129 -2 -25 -5 -46 -8 -49 -2 -3 -1
-21 3 -40 4 -18 5 -34 1 -34 -7 0 -6 -109 2 -117 3 -3 2 -16 -3 -29 -6 -14 -6
-26 0 -29 6 -3 6 -15 0 -30 -6 -15 -6 -27 0 -30 6 -3 6 -15 0 -30 -6 -15 -6
-27 0 -30 6 -3 6 -15 0 -30 -5 -14 -5 -27 -1 -30 21 -12 -4 -42 -62 -74 -63
-34 -187 -151 -187 -177 0 -8 -4 -14 -9 -14 -4 0 -12 -14 -17 -32 -7 -22 -17
-34 -37 -39 -15 -4 -29 -3 -32 1 -3 5 -16 5 -30 0 -15 -6 -27 -6 -30 0 -3 6
-15 6 -30 0 -15 -6 -27 -6 -30 0 -3 6 -15 6 -30 0 -15 -6 -25 -6 -25 0 0 5
-12 5 -30 0 -17 -5 -32 -5 -35 0 -3 5 -16 5 -30 0 -15 -6 -27 -6 -30 0 -3 6
-15 6 -30 0 -15 -6 -27 -6 -30 0 -3 6 -15 6 -30 0 -15 -6 -25 -6 -25 0 0 5
-12 5 -30 0 -17 -5 -32 -5 -35 0 -3 5 -16 5 -30 0 -15 -6 -27 -6 -30 0 -4 6
-13 7 -23 1 -11 -6 -24 -6 -34 0 -10 5 -26 5 -40 0 -13 -4 -32 -5 -43 -1 -11
4 -30 3 -43 -1 -15 -6 -21 -5 -17 1 3 5 0 8 -7 5 -7 -2 -30 -6 -51 -9 -20 -3
-52 -16 -70 -27 -33 -22 -72 -84 -62 -100 4 -5 2 -9 -4 -9 -6 0 -6 -11 -1 -30
5 -16 6 -30 2 -30 -8 0 -8 -68 0 -75 3 -3 2 -23 -2 -45 -4 -22 -3 -37 1 -34 5
3 5 -5 0 -18 -4 -13 -5 -32 -1 -43 4 -11 4 -29 0 -40 -4 -11 -4 -29 0 -40 4
-11 4 -29 0 -40 -4 -11 -4 -29 0 -40 4 -11 4 -30 -1 -42 -5 -13 -4 -34 1 -47
5 -13 6 -27 3 -30 -9 -9 -9 -75 -1 -69 5 2 4 -7 -2 -21 -6 -16 -6 -27 1 -31 6
-4 6 -13 0 -23 -6 -10 -6 -23 0 -34 6 -10 5 -19 -1 -23 -6 -3 -6 -15 0 -30 6
-15 6 -27 0 -30 -6 -3 -6 -15 0 -30 6 -15 6 -27 0 -30 -6 -3 -6 -15 0 -30 6
-15 6 -27 0 -30 -5 -3 -6 -15 -1 -28 5 -12 5 -32 0 -44 -5 -13 -4 -25 1 -28 6
-4 7 -13 1 -24 -5 -9 -6 -22 -2 -29 4 -6 5 -27 3 -46 -3 -29 -10 -36 -55 -57
-28 -13 -81 -53 -118 -89 -106 -104 -152 -219 -145 -363 9 -170 93 -308 236
-390 30 -18 57 -32 60 -32 3 -1 21 -6 40 -13 31 -10 128 -25 155 -23 66 3 198
43 226 67 8 8 20 14 25 14 20 1 123 119 155 177 30 55 38 63 64 64 17 1 34 1
38 0 5 -1 75 -2 156 -2 l147 -1 28 -54 c15 -29 39 -65 52 -79 12 -14 21 -25
18 -25 -3 0 9 -12 28 -27 18 -16 38 -33 45 -39 6 -6 36 -23 66 -38 l54 -28 1
-93 c0 -52 3 -98 6 -104 4 -5 2 -12 -3 -16 -7 -3 -7 -15 -1 -30 6 -15 6 -27
-1 -30 -5 -4 -7 -11 -4 -16 9 -13 12 -90 4 -95 -4 -2 -3 -20 1 -39 4 -19 4
-35 0 -35 -4 0 -4 -18 0 -40 4 -22 4 -43 0 -45 -4 -3 -4 -21 0 -40 4 -19 5
-35 1 -35 -7 0 -5 -94 3 -115 3 -8 1 -17 -4 -20 -6 -3 -6 -15 0 -30 6 -15 6
-27 0 -30 -6 -3 -6 -15 0 -30 6 -15 6 -27 0 -30 -6 -3 -6 -15 0 -30 6 -15 6
-27 0 -30 -6 -3 -6 -15 0 -30 6 -15 6 -27 0 -30 -6 -3 -6 -15 0 -30 6 -15 6
-27 0 -30 -6 -3 -6 -15 0 -30 6 -15 6 -27 0 -30 -6 -3 -6 -15 0 -30 6 -15 6
-27 0 -30 -6 -3 -6 -15 0 -30 6 -15 6 -27 -1 -30 -5 -4 -7 -11 -4 -16 9 -13
12 -90 4 -95 -4 -2 -3 -20 1 -39 4 -19 4 -35 0 -35 -4 0 -4 -18 0 -40 4 -22 4
-43 0 -45 -4 -3 -4 -21 0 -40 4 -19 4 -35 0 -35 -4 0 -4 -18 0 -40 4 -22 4
-43 0 -45 -4 -3 -4 -21 0 -40 4 -19 4 -35 0 -35 -4 0 -4 -18 0 -40 4 -22 4
-43 0 -45 -4 -3 -4 -21 0 -40 4 -19 5 -35 1 -35 -4 0 -6 -18 -4 -39 2 -38 1
-40 -54 -67 -31 -15 -81 -51 -112 -80 l-56 -53 -231 231 -230 230 19 56 c16
47 26 97 28 137 2 25 -13 124 -23 160 -38 128 -166 262 -293 306 -47 16 -52
17 -129 24 -32 3 -62 8 -67 11 -5 3 -9 0 -9 -6 0 -6 -4 -9 -8 -6 -4 3 -26 0
-48 -5 -21 -5 -47 -11 -57 -14 -33 -8 -132 -66 -167 -98 -53 -50 -105 -125
-130 -192 -31 -79 -33 -233 -6 -315 49 -144 179 -270 321 -310 75 -22 228 -18
291 7 l51 20 300 -301 c281 -281 301 -304 313 -351 13 -51 49 -127 63 -133 4
-2 7 -10 7 -17 0 -21 119 -125 176 -153 l52 -25 0 -214 c-1 -117 2 -216 5
-219 3 -4 2 -14 -3 -24 -5 -10 -7 -20 -4 -23 3 -2 7 -23 9 -46 6 -53 17 -74
61 -107 44 -34 120 -41 169 -15 44 22 77 75 80 128 2 25 5 46 8 49 2 3 1 21
-3 40 -4 18 -4 34 0 34 4 0 4 18 0 40 -4 22 -4 43 0 45 4 3 4 21 0 40 -4 19
-4 35 0 35 4 0 4 18 0 40 -4 22 -4 43 0 45 4 3 4 21 0 40 -4 19 -5 35 -1 35 3
0 5 18 5 40 -2 39 -1 40 55 67 114 55 221 193 250 321 12 55 7 187 -9 238 -21
72 -81 169 -125 205 -11 9 -31 26 -44 38 -13 11 -46 31 -72 43 -37 17 -51 30
-57 53 -5 17 -6 31 -3 32 8 4 5 372 -2 379 -3 4 -2 17 3 30 6 14 6 26 0 29 -6
3 -6 15 0 30 6 15 6 27 0 30 -6 3 -6 15 0 30 6 15 6 27 0 30 -6 3 -6 15 0 30
6 15 6 27 0 30 -6 3 -6 15 0 30 6 15 6 27 0 30 -6 3 -6 15 0 30 6 15 6 27 0
30 -6 3 -6 15 0 30 6 15 6 27 0 30 -6 3 -6 15 0 30 6 15 6 27 0 30 -6 3 -6 15
0 30 6 15 6 27 0 30 -6 3 -6 15 0 30 6 15 6 27 0 30 -6 3 -6 15 0 30 6 15 6
27 0 30 -6 3 -6 15 0 30 6 15 6 27 0 30 -6 3 -6 15 0 30 6 15 6 27 0 30 -6 3
-6 15 0 30 6 15 6 27 0 30 -6 3 -6 15 0 30 6 15 6 27 0 30 -6 3 -6 15 0 30 6
15 6 27 0 30 -6 3 -6 15 0 30 6 15 6 27 0 30 -6 3 -6 15 0 30 6 15 6 27 0 30
-6 3 -6 15 0 30 5 13 6 26 2 29 -5 3 -5 30 -2 61 3 31 3 58 -2 61 -4 3 -3 15
2 28 5 13 6 27 3 30 -8 8 -9 76 -1 76 4 0 3 14 -2 30 -5 17 -5 30 0 30 5 0 5
13 0 30 -5 18 -5 32 1 36 5 3 7 9 4 14 -3 4 22 22 55 39 70 35 138 96 180 159
35 52 69 139 72 183 1 17 6 33 10 35 5 3 6 9 3 14 -3 5 -8 37 -10 71 -6 81
-22 132 -61 199 -57 98 -157 179 -264 216 -82 28 -224 25 -312 -5 -38 -13 -68
-28 -68 -32 0 -5 -6 -9 -14 -9 -26 0 -143 -124 -177 -187 -29 -53 -38 -62 -67
-65 -18 -2 -37 -1 -44 3 -6 4 -22 3 -35 -2 -14 -5 -23 -5 -23 1 0 5 -9 6 -22
1 -13 -4 -35 -5 -50 0 -15 4 -30 4 -33 -1 -3 -5 -16 -5 -30 0 -15 6 -25 6 -25
0 0 -5 -12 -5 -27 -1 -16 4 -33 6 -39 4 -6 -2 -23 21 -38 51 -16 31 -37 66
-48 78 -11 13 -28 32 -37 43 -16 21 -102 83 -111 82 -3 -1 -19 7 -37 18 l-32
19 0 492 0 492 132 0 c73 0 175 1 227 1 52 0 109 1 125 2 17 0 37 1 45 0 8 0
43 -1 78 -2 47 0 62 -4 62 -15 0 -8 4 -14 9 -14 5 0 13 -10 17 -22 27 -86 145
-194 259 -237 45 -17 144 -35 180 -32 31 2 75 10 115 21 25 8 50 14 55 15 24
5 113 68 156 111 43 41 104 139 114 181 3 10 8 34 13 54 9 35 8 178 -1 209 -2
8 -8 28 -12 45 -14 51 -80 154 -120 186 -11 9 -30 26 -42 36 -13 11 -44 31
-70 44 -59 29 -65 36 -60 72 2 15 0 30 -4 33 -5 2 -4 16 1 29 6 15 6 27 0 30
-6 3 -6 15 0 30 6 15 6 27 0 30 -6 3 -6 15 0 30 6 15 6 27 0 30 -6 3 -6 15 0
30 6 15 6 27 0 30 -6 3 -6 15 0 30 6 15 6 27 0 30 -6 3 -6 15 0 30 6 15 6 27
0 30 -7 4 -7 13 0 24 5 10 7 21 4 24 -3 2 -7 23 -9 46 -6 53 -17 74 -61 107
-44 34 -123 41 -170 16z m134 -951 c17 -1 92 -76 93 -93 10 -105 -1 -142 -54
-182 -39 -30 -105 -41 -154 -25 -34 11 -92 72 -94 98 -1 9 -3 30 -5 46 -10 88
70 168 160 161 23 -2 47 -4 54 -5z m-1281 -1600 c6 -1 27 -15 47 -33 40 -35
59 -86 52 -142 -7 -48 -20 -70 -61 -102 -38 -29 -108 -39 -156 -22 -28 9 -88
71 -90 92 -7 63 -6 85 2 112 18 59 89 105 153 100 23 -2 46 -4 53 -5z m1281 0
c20 -2 92 -77 93 -98 1 -10 3 -34 5 -53 3 -40 -32 -120 -53 -120 -7 0 -13 -4
-13 -8 0 -5 -17 -14 -38 -21 -81 -27 -172 14 -201 91 -17 44 -5 115 25 155 40
53 79 65 182 54z m-1282 -1920 c20 -2 77 -56 90 -87 20 -47 10 -119 -22 -161
-40 -53 -79 -64 -181 -54 -20 2 -81 63 -91 91 -5 14 -8 46 -7 72 3 86 77 152
160 143 22 -2 45 -4 51 -4z m1283 -960 c17 -1 91 -76 92 -94 1 -6 3 -25 5 -42
5 -33 -14 -105 -28 -105 -4 0 -8 -6 -8 -13 0 -17 -79 -57 -111 -57 -47 0 -93
20 -126 55 -18 19 -34 41 -34 48 -12 117 6 160 84 200 24 12 60 15 126 8z"/>
<path d="M6815 7346 c-35 -15 -84 -69 -87 -94 0 -9 -2 -21 -3 -27 -2 -5 -4
-14 -5 -20 -1 -5 -1 -14 0 -20 1 -5 3 -29 4 -52 1 -23 5 -45 8 -49 4 -3 4 -12
2 -19 -3 -7 0 -16 5 -20 6 -3 9 -10 6 -15 -6 -10 38 -125 73 -190 74 -136 208
-268 353 -347 66 -36 207 -86 220 -77 5 3 9 2 9 -3 0 -4 19 -8 43 -8 23 1 52
-3 65 -7 12 -4 22 -4 22 0 0 4 12 8 26 9 31 1 69 28 98 67 29 38 29 134 0 172
-41 55 -64 65 -175 78 -202 24 -403 221 -434 427 -4 24 -8 59 -10 78 -4 37
-27 74 -66 103 -33 25 -115 32 -154 14z"/>
<path d="M5555 6072 c-85 -29 -115 -79 -110 -183 4 -96 9 -121 36 -199 37
-106 105 -218 186 -305 42 -46 139 -125 152 -125 6 0 11 -4 11 -9 0 -16 174
-92 253 -111 202 -48 321 10 312 153 -3 49 -37 106 -74 126 -19 11 -75 23
-101 23 -90 0 -214 62 -304 152 -93 94 -140 182 -152 285 -12 110 -23 134 -75
173 -26 20 -102 31 -134 20z"/>
<path d="M7780 5749 c-55 -23 -114 -109 -95 -139 3 -5 2 -10 -4 -10 -6 0 -8
-7 -5 -15 13 -33 -62 -235 -87 -235 -5 0 -9 -6 -9 -13 0 -24 -127 -133 -194
-166 -76 -37 -91 -41 -166 -47 -114 -8 -174 -65 -175 -166 0 -83 48 -140 130
-153 49 -9 50 -9 105 0 25 4 55 8 66 10 105 15 313 131 403 226 62 65 91 99
91 108 0 5 3 11 8 13 12 5 56 79 84 143 40 90 41 94 53 155 7 38 10 63 16 135
3 45 -27 104 -72 137 -30 23 -114 32 -149 17z"/>
<path d="M6097 4144 c-26 -7 -50 -13 -52 -13 -24 -7 -49 -16 -100 -39 -138
-61 -242 -145 -339 -271 -48 -62 -109 -174 -127 -234 -18 -56 -37 -152 -32
-159 2 -5 -1 -8 -7 -8 -6 0 -8 -5 -5 -10 4 -6 8 -33 9 -61 4 -54 23 -88 70
-123 40 -30 128 -28 177 4 49 32 65 68 73 165 4 53 8 64 39 134 51 116 176
237 285 276 21 8 46 17 57 21 11 4 43 8 70 10 28 1 62 7 76 12 35 14 89 61 89
78 0 8 4 14 9 14 4 0 7 27 6 60 -2 65 -18 96 -69 134 -21 16 -43 21 -104 22
-42 0 -98 -5 -125 -12z"/>
<path d="M7140 3828 c-115 -44 -132 -205 -29 -280 26 -19 57 -27 129 -32 197
-16 412 -230 435 -434 14 -112 24 -135 77 -175 27 -20 148 -34 148 -16 0 5 6
9 14 9 18 0 76 65 78 88 0 9 2 22 2 29 1 6 4 15 8 19 4 3 4 14 0 23 -5 9 -8
35 -8 58 1 24 -1 43 -4 43 -3 0 -6 8 -7 18 -2 29 -12 65 -35 122 -75 189 -217
348 -399 447 -66 36 -207 86 -220 77 -5 -3 -9 -2 -9 3 0 12 -150 13 -180 1z"/>
<path d="M6240 2563 c0 -4 -14 -8 -31 -9 -59 -2 -120 -68 -125 -133 -4 -61 12
-106 51 -140 34 -29 51 -35 147 -46 203 -24 407 -226 433 -430 4 -27 8 -63 11
-80 4 -35 29 -70 68 -99 40 -30 128 -28 177 4 50 33 69 82 64 166 -2 38 -6 80
-9 94 -3 14 -8 36 -11 50 -22 112 -124 281 -235 388 -67 65 -212 159 -275 178
-5 2 -36 12 -68 23 -32 11 -62 20 -65 20 -4 -1 -9 0 -12 1 -3 1 -26 3 -51 4
-25 2 -51 6 -57 10 -7 4 -12 4 -12 -1z"/>
</g>
</svg>
